<svg width="512" height="512" viewBox="0 0 512 512" xmlns="http://www.w3.org/2000/svg"><clipPath id="satori_bct-id"><path d="M179.7 105.0L179.7 105.0Q217.6 105.0 237.3 120.8Q257.0 136.7 264.4 163.1Q271.9 189.4 271.9 221.7L271.9 221.7L271.9 352.8Q271.9 366.1 263.2 375.0Q254.5 384 241.2 384Q227.8 384 219.1 375.0Q210.4 366.1 210.4 352.8L210.4 352.8L210.4 221.7Q210.4 204.8 206.1 191.2Q201.7 177.7 190.5 169.5Q179.2 161.3 158.2 161.3L158.2 161.3Q137.7 161.3 123.6 169.5Q109.6 177.7 102.1 191.2Q94.7 204.8 94.7 221.7L94.7 221.7L94.7 352.8Q94.7 366.1 86.0 375.0Q77.3 384 64 384Q50.7 384 42.0 375.0Q33.3 366.1 33.3 352.8L33.3 352.8L33.3 141.3Q33.3 128 42.0 119.0Q50.7 110.1 64 110.1Q77.3 110.1 86.0 119.0Q94.7 128 94.7 141.3L94.7 141.3L94.7 150.0Q97.3 146.4 100.4 142.8L100.4 142.8Q109.1 133.1 120.8 124.4Q132.6 115.7 147.5 110.3Q162.3 105.0 179.7 105.0ZM281.6 341.5L281.6 341.5Q276.5 334.3 277.0 323.1Q277.5 311.8 290.3 303.6L290.3 303.6Q298.5 298.5 307.7 299.3Q316.9 300.0 325.6 308.7L325.6 308.7Q340.5 323.6 356.9 331.8Q373.2 340.0 397.8 340.0L397.8 340.0Q405.5 339.5 414.7 337.7Q423.9 335.9 430.8 329.5Q437.8 323.1 437.8 309.8L437.8 309.8Q437.8 298.5 430.1 291.8Q422.4 285.2 409.9 280.6Q397.3 276.0 382.0 271.9L382.0 271.9Q366.1 267.3 349.4 261.6Q332.8 256 319.0 247.0Q305.2 238.1 296.4 223.2Q287.7 208.4 287.7 185.9L287.7 185.9Q287.7 160.3 302.1 142.3Q316.4 124.4 339.2 114.7Q362.0 105.0 387.1 105.0L387.1 105.0Q402.9 105.0 420.4 108.8Q437.8 112.6 453.6 121.1Q469.5 129.5 480.3 143.4L480.3 143.4Q485.9 151.0 486.9 161.8Q487.9 172.5 477.2 181.2L477.2 181.2Q469.5 187.4 459.3 186.6Q449.0 185.9 442.4 179.7L442.4 179.7Q433.7 168.4 419.1 161.8Q404.5 155.1 385.5 155.1L385.5 155.1Q377.9 155.1 368.9 156.9Q359.9 158.7 353.3 164.6Q346.6 170.5 346.6 183.3L346.6 183.3Q346.6 195.1 354.3 202.0Q362.0 208.9 375.0 213.2Q388.1 217.6 402.9 221.7L402.9 221.7Q418.3 225.8 434.2 231.4Q450.0 237.1 463.4 246.3Q476.7 255.5 484.9 270.1Q493.1 284.7 493.1 307.2L493.1 307.2Q493.1 333.3 477.7 351.7Q462.3 370.2 439.3 379.6Q416.3 389.1 392.2 389.1L392.2 389.1Q362.0 389.1 331.8 378.6Q301.6 368.1 281.6 341.5Z "/></clipPath><defs><pattern id="satori_pattern_id_0" x="0" y="0" width="1" height="1" patternUnits="objectBoundingBox"><linearGradient id="satori_biid_0" x1="0" y1="0" x2="1" y2="0" spreadMethod="pad"><stop offset="0%" stop-color="#0284c7"/><stop offset="30%" stop-color="#0284c7"/><stop offset="70%" stop-color="#ec4899"/><stop offset="100%" stop-color="#ec4899"/></linearGradient><rect x="0" y="0" width="512" height="512" fill="url(#satori_biid_0)"/></pattern></defs><mask id="satori_om-id"><rect x="0" y="0" width="512" height="512" fill="#fff"/></mask><rect x="0" y="0" width="512" height="512" fill="url(#satori_pattern_id_0)" clip-path="url(#satori_bct-id)"/></svg>