<svg width="512" height="512" viewBox="0 0 512 512" xmlns="http://www.w3.org/2000/svg"><clipPath id="satori_bct-id"><path d="M179.7 118.2L179.7 118.2Q217.6 118.2 237.3 134.1Q257.0 150.0 264.4 176.3Q271.9 202.7 271.9 234.9L271.9 234.9L271.9 366.0Q271.9 379.3 263.2 388.3Q254.5 397.3 241.2 397.3Q227.8 397.3 219.1 388.3Q210.4 379.3 210.4 366.0L210.4 366.0L210.4 234.9Q210.4 218.1 206.1 204.5Q201.7 190.9 190.5 182.7Q179.2 174.5 158.2 174.5L158.2 174.5Q137.7 174.5 123.6 182.7Q109.6 190.9 102.1 204.5Q94.7 218.1 94.7 234.9L94.7 234.9L94.7 366.0Q94.7 379.3 86.0 388.3Q77.3 397.3 64 397.3Q50.7 397.3 42.0 388.3Q33.3 379.3 33.3 366.0L33.3 366.0L33.3 154.6Q33.3 141.3 42.0 132.3Q50.7 123.3 64 123.3Q77.3 123.3 86.0 132.3Q94.7 141.3 94.7 154.6L94.7 154.6L94.7 163.3Q97.3 159.7 100.4 156.1L100.4 156.1Q109.1 146.4 120.8 137.7Q132.6 129.0 147.5 123.6Q162.3 118.2 179.7 118.2ZM281.6 354.8L281.6 354.8Q276.5 347.6 277.0 336.3Q277.5 325.1 290.3 316.9L290.3 316.9Q298.5 311.7 307.7 312.5Q316.9 313.3 325.6 322.0L325.6 322.0Q340.5 336.8 356.9 345.0Q373.2 353.2 397.8 353.2L397.8 353.2Q405.5 352.7 414.7 350.9Q423.9 349.1 430.8 342.7Q437.8 336.3 437.8 323.0L437.8 323.0Q437.8 311.7 430.1 305.1Q422.4 298.4 409.9 293.8Q397.3 289.2 382.0 285.1L382.0 285.1Q366.1 280.5 349.4 274.9Q332.8 269.3 319.0 260.3Q305.2 251.3 296.4 236.5Q287.7 221.6 287.7 199.1L287.7 199.1Q287.7 173.5 302.1 155.6Q316.4 137.7 339.2 127.9Q362.0 118.2 387.1 118.2L387.1 118.2Q402.9 118.2 420.4 122.1Q437.8 125.9 453.6 134.3Q469.5 142.8 480.3 156.6L480.3 156.6Q485.9 164.3 486.9 175.0Q487.9 185.8 477.2 194.5L477.2 194.5Q469.5 200.6 459.3 199.9Q449.0 199.1 442.4 193.0L442.4 193.0Q433.7 181.7 419.1 175.0Q404.5 168.4 385.5 168.4L385.5 168.4Q377.9 168.4 368.9 170.2Q359.9 172.0 353.3 177.9Q346.6 183.7 346.6 196.5L346.6 196.5Q346.6 208.3 354.3 215.2Q362.0 222.1 375.0 226.5Q388.1 230.9 402.9 234.9L402.9 234.9Q418.3 239.0 434.2 244.7Q450.0 250.3 463.4 259.5Q476.7 268.7 484.9 283.3Q493.1 297.9 493.1 320.5L493.1 320.5Q493.1 346.6 477.7 365.0Q462.3 383.4 439.3 392.9Q416.3 402.4 392.2 402.4L392.2 402.4Q362.0 402.4 331.8 391.9Q301.6 381.4 281.6 354.8Z "/></clipPath><defs><pattern id="satori_pattern_id_0" x="0" y="0" width="1" height="1" patternUnits="objectBoundingBox"><linearGradient id="satori_biid_0" x1="0" y1="0" x2="1" y2="0"><stop offset="0%" stop-color="#0284c7"/><stop offset="30%" stop-color="#0284c7"/><stop offset="70%" stop-color="#ec4899"/><stop offset="100%" stop-color="#ec4899"/></linearGradient><rect x="0" y="0" width="512" height="512" fill="url(#satori_biid_0)"/></pattern></defs><mask id="satori_om-id"><rect x="0" y="0" width="512" height="512" fill="#fff"/></mask><rect x="0" y="0" width="512" height="512" fill="url(#satori_pattern_id_0)" clip-path="url(#satori_bct-id)"/></svg>